<mxfile host="65bd71144e" scale="5" border="0">
    <diagram id="FgpiK9OE_3OYkIBHCV0x" name="Page-1">
        <mxGraphModel dx="2374" dy="890" grid="1" gridSize="10" guides="1" tooltips="1" connect="1" arrows="1" fold="1" page="1" pageScale="1" pageWidth="850" pageHeight="1100" background="#ffffff" math="0" shadow="0">
            <root>
                <mxCell id="0"/>
                <mxCell id="1" parent="0"/>
                <mxCell id="686" value="" style="curved=1;endArrow=none;html=1;endFill=0;startArrow=none;entryX=0;entryY=0;entryDx=7.989;entryDy=7.904000000000001;fontFamily=Garamond;fontSize=36;strokeWidth=2;entryPerimeter=0;dashed=1;exitX=0.471;exitY=0.536;exitDx=0;exitDy=0;exitPerimeter=0;" edge="1" parent="1" source="102" target="685">
                    <mxGeometry width="50" height="50" relative="1" as="geometry">
                        <mxPoint x="635" y="245" as="sourcePoint"/>
                        <mxPoint x="700.162296934087" y="229.92270306591342" as="targetPoint"/>
                        <Array as="points"/>
                    </mxGeometry>
                </mxCell>
                <mxCell id="683" value="" style="curved=1;endArrow=none;html=1;endFill=0;startArrow=none;entryX=0.514;entryY=0.5;entryDx=0;entryDy=0;fontFamily=Garamond;fontSize=36;strokeWidth=2;entryPerimeter=0;dashed=1;" edge="1" parent="1" target="102">
                    <mxGeometry width="50" height="50" relative="1" as="geometry">
                        <mxPoint x="625" y="235" as="sourcePoint"/>
                        <mxPoint x="631.4644660940671" y="248.535533905933" as="targetPoint"/>
                        <Array as="points"/>
                    </mxGeometry>
                </mxCell>
                <mxCell id="5" value="" style="endArrow=classic;html=1;fontFamily=Garamond;fontSize=36;strokeWidth=2;" parent="1" edge="1">
                    <mxGeometry width="50" height="50" relative="1" as="geometry">
                        <mxPoint x="63" y="520" as="sourcePoint"/>
                        <mxPoint x="833" y="520" as="targetPoint"/>
                    </mxGeometry>
                </mxCell>
                <mxCell id="6" value="" style="endArrow=classic;html=1;fontFamily=Garamond;fontSize=36;strokeWidth=2;startArrow=none;" parent="1" edge="1">
                    <mxGeometry width="50" height="50" relative="1" as="geometry">
                        <mxPoint x="63" y="510" as="sourcePoint"/>
                        <mxPoint x="63" y="110" as="targetPoint"/>
                    </mxGeometry>
                </mxCell>
                <mxCell id="31" value="" style="ellipse;whiteSpace=wrap;html=1;aspect=fixed;fillColor=#000000;fontFamily=Garamond;fontSize=36;strokeWidth=2;" parent="1" vertex="1">
                    <mxGeometry x="110.07" y="430" width="10" height="10" as="geometry"/>
                </mxCell>
                <mxCell id="34" value="" style="curved=1;endArrow=none;html=1;endFill=0;fontFamily=Garamond;fontSize=36;strokeWidth=2;" parent="1" target="31" edge="1">
                    <mxGeometry width="50" height="50" relative="1" as="geometry">
                        <mxPoint x="63" y="520" as="sourcePoint"/>
                        <mxPoint x="783" y="252" as="targetPoint"/>
                        <Array as="points"/>
                    </mxGeometry>
                </mxCell>
                <mxCell id="35" value="" style="ellipse;whiteSpace=wrap;html=1;aspect=fixed;fillColor=#000000;fontFamily=Garamond;fontSize=36;strokeWidth=2;" parent="1" vertex="1">
                    <mxGeometry x="160" y="370" width="10" height="10" as="geometry"/>
                </mxCell>
                <mxCell id="36" value="" style="curved=1;endArrow=none;html=1;endFill=0;startArrow=none;fontFamily=Garamond;fontSize=36;strokeWidth=2;" parent="1" source="31" target="35" edge="1">
                    <mxGeometry width="50" height="50" relative="1" as="geometry">
                        <mxPoint x="131.86212742996054" y="228.1755269979675" as="sourcePoint"/>
                        <mxPoint x="783" y="252" as="targetPoint"/>
                        <Array as="points"/>
                    </mxGeometry>
                </mxCell>
                <mxCell id="37" value="" style="ellipse;whiteSpace=wrap;html=1;aspect=fixed;fillColor=#000000;fontFamily=Garamond;fontSize=36;strokeWidth=2;" parent="1" vertex="1">
                    <mxGeometry x="210" y="320" width="10" height="10" as="geometry"/>
                </mxCell>
                <mxCell id="38" value="" style="curved=1;endArrow=none;html=1;endFill=0;startArrow=none;fontFamily=Garamond;fontSize=36;strokeWidth=2;" parent="1" source="35" target="37" edge="1">
                    <mxGeometry width="50" height="50" relative="1" as="geometry">
                        <mxPoint x="204.0410887221626" y="238.05401727147455" as="sourcePoint"/>
                        <mxPoint x="783" y="252" as="targetPoint"/>
                        <Array as="points"/>
                    </mxGeometry>
                </mxCell>
                <mxCell id="39" value="" style="ellipse;whiteSpace=wrap;html=1;aspect=fixed;fillColor=#000000;fontFamily=Garamond;fontSize=36;strokeWidth=2;" parent="1" vertex="1">
                    <mxGeometry x="270" y="290" width="10" height="10" as="geometry"/>
                </mxCell>
                <mxCell id="40" value="" style="curved=1;endArrow=none;html=1;endFill=0;startArrow=none;fontFamily=Garamond;fontSize=36;strokeWidth=2;" parent="1" source="37" target="39" edge="1">
                    <mxGeometry width="50" height="50" relative="1" as="geometry">
                        <mxPoint x="262.0686673560158" y="202.09380903141732" as="sourcePoint"/>
                        <mxPoint x="783" y="252" as="targetPoint"/>
                        <Array as="points"/>
                    </mxGeometry>
                </mxCell>
                <mxCell id="41" value="" style="ellipse;whiteSpace=wrap;html=1;aspect=fixed;fillColor=#000000;fontFamily=Garamond;fontSize=36;strokeWidth=2;" parent="1" vertex="1">
                    <mxGeometry x="330" y="290" width="10" height="10" as="geometry"/>
                </mxCell>
                <mxCell id="42" value="" style="curved=1;endArrow=none;html=1;endFill=0;startArrow=none;fontFamily=Garamond;fontSize=36;strokeWidth=2;" parent="1" source="39" target="41" edge="1">
                    <mxGeometry width="50" height="50" relative="1" as="geometry">
                        <mxPoint x="287.29289321881356" y="249.94974746830485" as="sourcePoint"/>
                        <mxPoint x="783" y="252" as="targetPoint"/>
                        <Array as="points"/>
                    </mxGeometry>
                </mxCell>
                <mxCell id="43" value="" style="ellipse;whiteSpace=wrap;html=1;aspect=fixed;fillColor=#000000;fontFamily=Garamond;fontSize=36;strokeWidth=2;" parent="1" vertex="1">
                    <mxGeometry x="383" y="310" width="10" height="10" as="geometry"/>
                </mxCell>
                <mxCell id="44" value="" style="curved=1;endArrow=none;html=1;endFill=0;startArrow=none;fontFamily=Garamond;fontSize=36;strokeWidth=2;" parent="1" source="41" target="43" edge="1">
                    <mxGeometry width="50" height="50" relative="1" as="geometry">
                        <mxPoint x="342.8353726863088" y="296.272466496397" as="sourcePoint"/>
                        <mxPoint x="783" y="252" as="targetPoint"/>
                        <Array as="points"/>
                    </mxGeometry>
                </mxCell>
                <mxCell id="45" value="" style="ellipse;whiteSpace=wrap;html=1;aspect=fixed;fillColor=#000000;fontFamily=Garamond;fontSize=36;strokeWidth=2;" parent="1" vertex="1">
                    <mxGeometry x="420" y="360" width="10" height="10" as="geometry"/>
                </mxCell>
                <mxCell id="46" value="" style="curved=1;endArrow=none;html=1;endFill=0;startArrow=none;fontFamily=Garamond;fontSize=36;strokeWidth=2;" parent="1" source="43" target="45" edge="1">
                    <mxGeometry width="50" height="50" relative="1" as="geometry">
                        <mxPoint x="402.9497474683519" y="315.70710678119315" as="sourcePoint"/>
                        <mxPoint x="783" y="252" as="targetPoint"/>
                        <Array as="points"/>
                    </mxGeometry>
                </mxCell>
                <mxCell id="47" value="" style="ellipse;whiteSpace=wrap;html=1;aspect=fixed;fillColor=#000000;fontFamily=Garamond;fontSize=36;strokeWidth=2;" parent="1" vertex="1">
                    <mxGeometry x="468" y="310" width="10" height="10" as="geometry"/>
                </mxCell>
                <mxCell id="48" value="" style="curved=1;endArrow=none;html=1;endFill=0;startArrow=none;fontFamily=Garamond;fontSize=36;strokeWidth=2;" parent="1" source="45" target="47" edge="1">
                    <mxGeometry width="50" height="50" relative="1" as="geometry">
                        <mxPoint x="438.8495345825381" y="359.92730057872086" as="sourcePoint"/>
                        <mxPoint x="783" y="252" as="targetPoint"/>
                        <Array as="points"/>
                    </mxGeometry>
                </mxCell>
                <mxCell id="49" value="" style="ellipse;whiteSpace=wrap;html=1;aspect=fixed;fillColor=#000000;fontFamily=Garamond;fontSize=36;strokeWidth=2;" parent="1" vertex="1">
                    <mxGeometry x="478" y="250" width="10" height="10" as="geometry"/>
                </mxCell>
                <mxCell id="50" value="" style="curved=1;endArrow=none;html=1;endFill=0;startArrow=none;fontFamily=Garamond;fontSize=36;strokeWidth=2;" parent="1" source="47" target="49" edge="1">
                    <mxGeometry width="50" height="50" relative="1" as="geometry">
                        <mxPoint x="453.66081860045506" y="429.9561395034125" as="sourcePoint"/>
                        <mxPoint x="783" y="252" as="targetPoint"/>
                        <Array as="points"/>
                    </mxGeometry>
                </mxCell>
                <mxCell id="52" value="" style="ellipse;whiteSpace=wrap;html=1;aspect=fixed;fillColor=#000000;fontFamily=Garamond;fontSize=36;strokeWidth=2;" parent="1" vertex="1">
                    <mxGeometry x="516.07" y="190" width="10" height="10" as="geometry"/>
                </mxCell>
                <mxCell id="53" value="" style="curved=1;endArrow=none;html=1;endFill=0;startArrow=none;fontFamily=Garamond;fontSize=36;strokeWidth=2;exitX=1;exitY=0;exitDx=0;exitDy=0;" parent="1" source="49" target="52" edge="1">
                    <mxGeometry width="50" height="50" relative="1" as="geometry">
                        <mxPoint x="468" y="245" as="sourcePoint"/>
                        <mxPoint x="783" y="252" as="targetPoint"/>
                        <Array as="points"/>
                    </mxGeometry>
                </mxCell>
                <mxCell id="63" value="" style="curved=1;endArrow=none;html=1;endFill=0;startArrow=none;entryX=0;entryY=1;entryDx=0;entryDy=0;fontFamily=Garamond;fontSize=36;strokeWidth=2;" parent="1" source="67" target="64" edge="1">
                    <mxGeometry width="50" height="50" relative="1" as="geometry">
                        <mxPoint x="671.8621274299253" y="208.1755269979385" as="sourcePoint"/>
                        <mxPoint x="783" y="252" as="targetPoint"/>
                        <Array as="points"/>
                    </mxGeometry>
                </mxCell>
                <mxCell id="64" value="" style="ellipse;whiteSpace=wrap;html=1;aspect=fixed;fillColor=#000000;fontFamily=Garamond;fontSize=36;strokeWidth=2;" parent="1" vertex="1">
                    <mxGeometry x="620" y="230" width="10" height="10" as="geometry"/>
                </mxCell>
                <mxCell id="67" value="" style="ellipse;whiteSpace=wrap;html=1;aspect=fixed;fillColor=#000000;fontFamily=Garamond;fontSize=36;strokeWidth=2;" parent="1" vertex="1">
                    <mxGeometry x="580" y="270" width="10" height="10" as="geometry"/>
                </mxCell>
                <mxCell id="68" value="" style="curved=1;endArrow=none;html=1;endFill=0;startArrow=none;fontFamily=Garamond;fontSize=36;strokeWidth=2;entryX=0;entryY=0;entryDx=0;entryDy=0;" parent="1" target="67" edge="1">
                    <mxGeometry width="50" height="50" relative="1" as="geometry">
                        <mxPoint x="521" y="195" as="sourcePoint"/>
                        <mxPoint x="668" y="235" as="targetPoint"/>
                        <Array as="points"/>
                    </mxGeometry>
                </mxCell>
                <mxCell id="102" value="" style="shape=cross;whiteSpace=wrap;html=1;rotation=-45;fillColor=#FF0000;fontFamily=Garamond;fontSize=36;strokeWidth=2;" parent="1" vertex="1">
                    <mxGeometry x="680" y="210.24" width="19.93" height="19.76" as="geometry"/>
                </mxCell>
                <mxCell id="117" value="" style="shape=curlyBracket;whiteSpace=wrap;html=1;rounded=1;fillColor=#FF0000;rotation=90;fontFamily=Garamond;fontSize=36;strokeWidth=2;" parent="1" vertex="1">
                    <mxGeometry x="348" y="-113" width="20" height="562.5" as="geometry"/>
                </mxCell>
                <mxCell id="667" value="Value" style="text;align=center;verticalAlign=middle;rounded=0;fontFamily=Garamond;html=1;whiteSpace=wrap;fontSize=36;rotation=-90;strokeWidth=2;" parent="1" vertex="1">
                    <mxGeometry x="-36" y="243" width="156.07" height="97.12" as="geometry"/>
                </mxCell>
                <mxCell id="670" value="Time" style="text;align=center;verticalAlign=middle;rounded=0;fontFamily=Garamond;html=1;whiteSpace=wrap;fontSize=36;rotation=0;strokeWidth=2;" parent="1" vertex="1">
                    <mxGeometry x="369.99999999999994" y="490" width="156.07" height="97.12" as="geometry"/>
                </mxCell>
                <mxCell id="679" value="" style="endArrow=none;html=1;fontFamily=Garamond;fontSize=36;strokeWidth=2;" parent="1" edge="1">
                    <mxGeometry width="50" height="50" relative="1" as="geometry">
                        <mxPoint x="63" y="520" as="sourcePoint"/>
                        <mxPoint x="61.95035144482881" y="493.1199999999999" as="targetPoint"/>
                    </mxGeometry>
                </mxCell>
                <mxCell id="685" value="" style="shape=cross;whiteSpace=wrap;html=1;rotation=-45;fillColor=#FF0000;fontFamily=Garamond;fontSize=36;strokeWidth=2;" vertex="1" parent="1">
                    <mxGeometry x="740" y="243" width="19.93" height="19.76" as="geometry"/>
                </mxCell>
                <mxCell id="687" value="" style="shape=cross;whiteSpace=wrap;html=1;rotation=-45;fillColor=#FF0000;fontFamily=Garamond;fontSize=36;strokeWidth=2;" vertex="1" parent="1">
                    <mxGeometry x="780" y="280.24" width="19.93" height="19.76" as="geometry"/>
                </mxCell>
                <mxCell id="688" value="" style="curved=1;endArrow=none;html=1;endFill=0;startArrow=none;fontFamily=Garamond;fontSize=36;strokeWidth=2;dashed=1;exitX=0;exitY=0;exitDx=11.940999999999999;exitDy=3.9519999999999995;exitPerimeter=0;entryX=0.508;entryY=0.517;entryDx=0;entryDy=0;entryPerimeter=0;" edge="1" parent="1" source="687" target="685">
                    <mxGeometry width="50" height="50" relative="1" as="geometry">
                        <mxPoint x="757" y="340" as="sourcePoint"/>
                        <mxPoint x="750" y="250" as="targetPoint"/>
                        <Array as="points"/>
                    </mxGeometry>
                </mxCell>
                <mxCell id="689" value="" style="shape=curlyBracket;whiteSpace=wrap;html=1;rounded=1;fillColor=#FF0000;rotation=90;fontFamily=Garamond;fontSize=36;strokeWidth=2;" vertex="1" parent="1">
                    <mxGeometry x="730" y="87.5" width="20" height="162.5" as="geometry"/>
                </mxCell>
                <mxCell id="690" value="Window" style="text;align=center;verticalAlign=middle;rounded=0;fontFamily=Garamond;html=1;whiteSpace=wrap;fontSize=36;rotation=0;strokeWidth=2;" vertex="1" parent="1">
                    <mxGeometry x="279.9699999999999" y="87.5" width="156.07" height="97.12" as="geometry"/>
                </mxCell>
                <mxCell id="691" value="Horizon" style="text;align=center;verticalAlign=middle;rounded=0;fontFamily=Garamond;html=1;whiteSpace=wrap;fontSize=36;rotation=0;strokeWidth=2;" vertex="1" parent="1">
                    <mxGeometry x="661.9699999999999" y="80" width="156.07" height="97.12" as="geometry"/>
                </mxCell>
                <mxCell id="692" value="" style="shape=curlyBracket;whiteSpace=wrap;html=1;rounded=1;fillColor=#FF0000;rotation=90;fontFamily=Garamond;fontSize=36;strokeWidth=2;" vertex="1" parent="1">
                    <mxGeometry x="443" y="-275" width="20" height="750" as="geometry"/>
                </mxCell>
                <mxCell id="693" value="Sequence" style="text;align=center;verticalAlign=middle;rounded=0;fontFamily=Garamond;html=1;whiteSpace=wrap;fontSize=36;rotation=0;strokeWidth=2;" vertex="1" parent="1">
                    <mxGeometry x="369.9999999999999" y="20" width="156.07" height="97.12" as="geometry"/>
                </mxCell>
                <mxCell id="696" style="edgeStyle=none;html=1;dashed=1;" edge="1" parent="1" source="695">
                    <mxGeometry relative="1" as="geometry">
                        <mxPoint x="690" y="230" as="targetPoint"/>
                    </mxGeometry>
                </mxCell>
                <mxCell id="697" style="edgeStyle=none;html=1;dashed=1;" edge="1" parent="1" source="695">
                    <mxGeometry relative="1" as="geometry">
                        <mxPoint x="750" y="260" as="targetPoint"/>
                    </mxGeometry>
                </mxCell>
                <mxCell id="698" style="edgeStyle=none;html=1;dashed=1;" edge="1" parent="1" source="695">
                    <mxGeometry relative="1" as="geometry">
                        <mxPoint x="790" y="300" as="targetPoint"/>
                    </mxGeometry>
                </mxCell>
                <mxCell id="695" value="Predicted Values" style="text;align=center;verticalAlign=middle;rounded=0;fontFamily=Garamond;html=1;whiteSpace=wrap;fontSize=36;rotation=0;strokeWidth=2;fillColor=#f5f5f5;fontColor=#333333;strokeColor=#666666;" vertex="1" parent="1">
                    <mxGeometry x="661.9699999999999" y="370" width="156.07" height="97.12" as="geometry"/>
                </mxCell>
            </root>
        </mxGraphModel>
    </diagram>
</mxfile>